<?xml version="1.0" standalone="no"?>
<!DOCTYPE svg PUBLIC "-//W3C//DTD SVG 20010904//EN"
 "http://www.w3.org/TR/2001/REC-SVG-20010904/DTD/svg10.dtd">
<svg version="1.0" xmlns="http://www.w3.org/2000/svg"
 width="260.000000pt" height="260.000000pt" viewBox="0 0 260.000000 260.000000"
 preserveAspectRatio="xMidYMid meet">
<metadata>
Created by potrace 1.11, written by Peter Selinger 2001-2013
</metadata>
<g transform="translate(0.000000,260.000000) scale(0.100000,-0.100000)"
fill="#000000" stroke="none">
<path d="M2193 2121 l-103 -48 26 -34 c73 -99 150 -271 189 -428 32 -126 39
-188 40 -351 0 -164 -9 -233 -51 -380 -30 -100 -109 -272 -160 -342 -19 -28
-34 -52 -31 -54 7 -7 200 -84 212 -84 13 0 80 101 119 178 73 146 132 345 151
517 6 53 7 293 1 325 -3 14 -7 45 -10 70 -11 85 -40 216 -55 255 -5 11 -23 60
-41 108 -49 135 -150 318 -175 316 -5 0 -56 -22 -112 -48z"/>
<path d="M293 2088 c-103 -157 -180 -370 -213 -591 -10 -66 -15 -360 -6 -375
2 -4 7 -34 10 -67 4 -33 9 -67 11 -75 2 -8 6 -26 9 -40 33 -169 148 -443 227
-539 l19 -24 110 49 c105 47 109 49 95 69 -110 151 -195 367 -229 580 -19 120
-15 363 8 470 36 166 106 338 187 457 22 32 39 60 39 62 0 2 -37 18 -82 36
-46 17 -91 36 -100 41 -32 17 -43 9 -85 -53z"/>
<path d="M643 2113 c-65 -36 -98 -113 -83 -192 27 -149 207 -191 288 -68 35
53 38 143 6 197 -43 75 -138 103 -211 63z"/>
<path d="M1805 1795 c-2 -5 -3 -217 -2 -470 l2 -460 140 0 140 0 0 470 0 470
-139 0 c-86 0 -140 -3 -141 -10z"/>
<path d="M574 1675 c-2 -5 -2 -217 -1 -470 l2 -460 140 0 140 0 2 450 c1 248
0 459 -2 470 -4 19 -12 20 -141 20 -82 0 -138 -4 -140 -10z"/>
<path d="M953 1540 c-17 -5 -19 -15 -17 -115 1 -60 2 -113 3 -116 0 -4 174 -6
386 -7 l385 0 1 47 c2 72 -2 185 -7 190 -5 6 -730 7 -751 1z"/>
<path d="M941 1210 c-4 -3 -7 -57 -7 -120 l1 -115 388 0 387 0 1 47 c1 27 1
57 1 68 0 11 0 44 -1 73 l-1 52 -381 0 c-209 0 -384 -2 -388 -5z"/>
<path d="M1895 763 c-53 -10 -103 -80 -111 -152 -11 -120 82 -213 188 -189 80
17 128 79 129 165 2 125 -86 200 -206 176z"/>
</g>
</svg>
